#N canvas 4 4 2256 1430 12;
#X msg 114 100 35;
#X obj 152 100 s response-len;
#X obj 147 151 s filename;
#X text 201 178 standard MIDI "device inquiry" sysex;
#X msg 55 179 240 126 \$1 6 1 247;
#X msg 49 37 0;
#X msg 99 37 127;
#X text 48 17 Akai;
#X text 99 18 MIDI;
#X obj 55 211 midiout;
#X obj 55 101 t f f;
#X obj 147 127 makefilename id-%d.txt;
#X connect 0 0 1 0;
#X connect 4 0 9 0;
#X connect 5 0 10 0;
#X connect 6 0 10 0;
#X connect 10 0 4 0;
#X connect 10 1 0 0;
#X connect 10 1 11 0;
#X connect 11 0 2 0;
