#N canvas 308 308 2256 1430 12;
#X obj 22 26 notein;
#X text 75 78 velocity;
#X text 86 52 channel;
#X obj 172 26 ctlin;
#X text 204 102 value;
#X text 220 76 controller #;
#X text 57 100 note;
#X text 231 52 channel/port;
#X floatatom 22 100 4 0 127 0 - - - 0;
#X floatatom 41 77 4 0 127 0 - - - 0;
#X floatatom 173 101 4 0 127 0 - - - 0;
#X floatatom 189 76 4 0 127 0 - - - 0;
#X floatatom 204 51 0 1 64 0 - - - 0;
#X floatatom 61 52 0 1 64 0 - - - 0;
#X obj 345 27 pgmin;
#X floatatom 345 59 5 0 0 0 - - - 0;
#X floatatom 391 58 5 0 0 0 - - - 0;
#X obj 465 27 touchin;
#X obj 554 27 polytouchin;
#X text 654 55 channel;
#X text 586 101 aftertouch value;
#X text 623 78 note;
#X floatatom 591 77 4 0 127 0 - - - 0;
#X floatatom 554 99 4 0 127 0 - - - 0;
#X floatatom 465 55 4 0 127 0 - - - 0;
#X floatatom 511 55 0 1 64 0 - - - 0;
#X floatatom 628 55 0 1 64 0 - - - 0;
#X text 513 75 ch;
#X text 457 75 value;
#X connect 0 0 8 0;
#X connect 0 1 9 0;
#X connect 0 2 13 0;
#X connect 3 0 10 0;
#X connect 3 1 11 0;
#X connect 3 2 12 0;
#X connect 14 0 15 0;
#X connect 14 1 16 0;
#X connect 17 0 24 0;
#X connect 17 1 25 0;
#X connect 18 0 23 0;
#X connect 18 1 22 0;
#X connect 18 2 26 0;
