#N canvas 4 4 2256 1430 12;
#X obj 42 404 midiout;
#X msg 119 64 3;
#X msg 81 64 2;
#X msg 42 64 1;
#X msg 157 64 4;
#X msg 216 63 0;
#X text 217 44 current;
#X text 40 45 set preset #;
#X obj 111 404 print sysex-set;
#X listbox 61 269 132 0 0 0 - - - 0;
#X msg 42 299 247;
#X text 79 297 sysex end;
#X text 232 345 convenient "summing" point;
#X listbox 87 347 20 0 0 0 - - - 0;
#X msg 102 147 \; sysex-set-preset read ~/akai-lpd8/lpd8-mk2-set-preset-\$1.txt;
#X obj 42 110 t b b f f;
#X obj 314 115 table sysex-set-preset 173;
#X obj 61 237 array get sysex-set-preset 8 164;
#X text 295 236 skip sysex start and sysex end;
#X msg 83 200 240 71 127 76 1 1 37 \$1;
#X text 265 192 sysex start: set preset 1 37 is correct length;
#X connect 1 0 15 0;
#X connect 2 0 15 0;
#X connect 3 0 15 0;
#X connect 4 0 15 0;
#X connect 5 0 15 0;
#X connect 9 0 13 0;
#X connect 10 0 13 0;
#X connect 13 0 8 0;
#X connect 13 0 0 0;
#X connect 15 0 10 0;
#X connect 15 1 17 0;
#X connect 15 2 19 0;
#X connect 15 3 14 0;
#X connect 17 0 9 0;
#X connect 19 0 13 0;
